<svg xmlns="http://www.w3.org/2000/svg" width="512" height="512" style="overflow: visible;" viewBox="0 0 512 512" data-svgdocument="" id="_4xihbDZdZvlL2cgieZ6TI" class="fl-svgdocument" x="0" y="0" xmlns:xlink="http://www.w3.org/1999/xlink"><defs id="_yKWZKYCtWDMgMR4SV4OKX" transform="matrix(0.5945395231246948, 0, 0, 0.5945395231246948, -88.42816162109375, 178.15707397460938)" data-uid="o_eij0d4lle_5"></defs><path text="Altswap" text-anchor="start" font-size="100" letter-spacing="0" side="left" offset="0" dx="0" dy="0" space="preserve" href="" font-family="Roboto Condensed" font-scale="contain" transform="matrix(1.2002438306808472, 0, 0, 1.2912211418151855, 83.47704315185547, 375.93267822265625)" x="0" y="0" fill="#000000" data-fl-textpath="" id="_3OwcdtVJrDOUW9pg0E9G3" font-weight="400" font-style="normal" data-uid="o_eij0d4lle_6" d="M 46.44 0L 40.82-18.55L 16.8-18.55L 11.28 0L 2.1 0L 25-71.09L 32.67-71.09L 55.62 0L 46.44 0ZM 28.81-58.59L 19.14-26.27L 38.53-26.27L 28.81-58.59ZM 73.3871875-75L 73.3871875 0L 64.7471875 0L 64.7471875-75L 73.3871875-75ZM 89.697578125-65.63L 98.287578125-65.63L 98.287578125-52.83L 106.247578125-52.83L 106.247578125-45.85L 98.287578125-45.85L 98.287578125-13.09Q 98.287578125-9.96  99.317578125-8.35Q 100.337578125-6.74  102.827578125-6.74L 102.827578125-6.74Q 104.537578125-6.74  106.297578125-7.32L 106.297578125-7.32L 106.197578125 0Q 103.267578125 0.98  100.197578125 0.98L 100.197578125 0.98Q 95.067578125 0.98  92.387578125-2.69Q 89.697578125-6.35  89.697578125-13.04L 89.697578125-13.04L 89.697578125-45.85L 81.637578125-45.85L 81.637578125-52.83L 89.697578125-52.83L 89.697578125-65.63ZM 142.18859375-13.53L 142.18859375-13.53Q 142.18859375-16.31  140.08859375-18.31Q 137.98859375-20.31  131.97859375000002-23L 131.97859375000002-23Q 124.99859375-25.88  122.13859375-27.93Q 119.28859375-29.98  117.86859375-32.59Q 116.45859375-35.21  116.45859375-38.82L 116.45859375-38.82Q 116.45859375-45.26  121.16859375-49.54Q 125.87859375-53.81  133.19859375-53.81L 133.19859375-53.81Q 140.91859375-53.81  145.60859375-49.32Q 150.28859375-44.82  150.28859375-37.79L 150.28859375-37.79L 141.69859375-37.79Q 141.69859375-41.36  139.30859375-43.87Q 136.91859375-46.39  133.19859375-46.39L 133.19859375-46.39Q 129.39859375-46.39  127.21859375-44.41Q 125.04859375-42.43  125.04859375-39.11L 125.04859375-39.11Q 125.04859375-36.47  126.63859375-34.86Q 128.21859375-33.25  134.27859375-30.62L 134.27859375-30.62Q 143.89859375-26.86  147.35859375-23.27Q 150.82859375-19.68  150.82859375-14.16L 150.82859375-14.16Q 150.82859375-7.28  146.09859375-3.15Q 141.35859375 0.98  133.39859375 0.98L 133.39859375 0.98Q 125.14859375 0.98  120.01859375000001-3.76Q 114.88859375-8.5  114.88859375-15.77L 114.88859375-15.77L 123.58859375-15.77Q 123.72859375-11.38  126.26859375000001-8.89Q 128.80859375-6.4  133.39859375-6.4L 133.39859375-6.4Q 137.69859375-6.4  139.93859375-8.33Q 142.18859375-10.25  142.18859375-13.53ZM 191.405234375-52.83L 201.465234375-15.19L 209.475234375-52.83L 218.015234375-52.83L 205.075234375 0L 198.19523437499998 0L 187.895234375-37.79L 177.835234375 0L 170.895234375 0L 158.055234375-52.83L 166.555234375-52.83L 174.755234375-16.11L 184.575234375-52.83L 191.405234375-52.83ZM 263.23546875 0L 254.24546875 0Q 253.46546875-1.71  253.12546875-5.76L 253.12546875-5.76Q 248.53546875 0.98  241.40546875 0.98L 241.40546875 0.98Q 234.22546875 0.98  230.19546875-3.05Q 226.17546875-7.08  226.17546875-14.4L 226.17546875-14.4Q 226.17546875-22.46  231.64546875-27.2Q 237.10546875-31.93  246.63546875-32.03L 246.63546875-32.03L 252.97546875-32.03L 252.97546875-37.65Q 252.97546875-42.38  250.87546875-44.38Q 248.77546875000002-46.39  244.48546875-46.39L 244.48546875-46.39Q 240.57546875-46.39  238.13546875-44.07Q 235.69546875-41.75  235.69546875-38.18L 235.69546875-38.18L 227.05546875-38.18Q 227.05546875-42.24  229.44546875-45.92Q 231.83546875-49.61  235.88546875-51.71Q 239.94546875-53.81  244.92546875-53.81L 244.92546875-53.81Q 253.02546875000002-53.81  257.25546875-49.78Q 261.47546875-45.75  261.57546875-38.04L 261.57546875-38.04L 261.57546875-11.38Q 261.62546875-5.27  263.23546875-0.78L 263.23546875-0.78L 263.23546875 0ZM 242.72546875-6.88L 242.72546875-6.88Q 245.89546875-6.88  248.77546875000002-8.64Q 251.65546875-10.4  252.97546875-13.04L 252.97546875-13.04L 252.97546875-25.63L 248.09546875-25.63Q 241.94546875-25.54  238.37546875-22.88Q 234.81546875-20.21  234.81546875-15.43L 234.81546875-15.43Q 234.81546875-10.94  236.62546875-8.91Q 238.42546875-6.88  242.72546875-6.88ZM 313.135859375-29.64L 313.135859375-23.88Q 313.135859375-11.33  308.615859375-5.18Q 304.105859375 0.98  295.845859375 0.98L 295.845859375 0.98Q 287.885859375 0.98  283.595859375-5.03L 283.595859375-5.03L 283.595859375 20.31L 274.995859375 20.31L 274.995859375-52.83L 282.815859375-52.83L 283.255859375-46.97Q 287.595859375-53.81  295.705859375-53.81L 295.705859375-53.81Q 304.395859375-53.81  308.695859375-47.75Q 312.985859375-41.7  313.135859375-29.64L 313.135859375-29.64ZM 304.545859375-23.54L 304.545859375-28.81Q 304.545859375-37.7  301.805859375-41.92Q 299.075859375-46.14  293.015859375-46.14L 293.015859375-46.14Q 286.815859375-46.14  283.595859375-39.94L 283.595859375-39.94L 283.595859375-12.45Q 286.765859375-6.4  293.115859375-6.4L 293.115859375-6.4Q 298.975859375-6.4  301.735859375-10.62Q 304.495859375-14.84  304.545859375-23.54L 304.545859375-23.54Z"></path><path text="no vc" fill="#000000" space="preserve" text-anchor="middle" offset="0.5" font-scale="contain" font-size="48" font-family="Audiowide" transform="matrix(1, 0, 0, 1, 272.3160400390625, 437.9891357421875)" font-weight="400" font-style="normal" data-uid="o_eij0d4lle_7" data-fl-textpath="" d="M-40.9428125-14.06L-40.9428125 0L-47.0428125 0L-47.0428125-14.06Q-47.0428125-15.26 -47.4528125-16.21Q-47.862812500000004-17.16 -48.5628125-17.84Q-49.262812499999995-18.52 -50.2128125-18.88Q-51.1628125-19.24 -52.262812499999995-19.24L-52.262812499999995-19.24L-62.9328125-19.24L-62.9328125 0L-69.0228125 0L-69.0228125-22.31Q-69.0228125-22.95 -68.7928125-23.5Q-68.5528125-24.05 -68.1328125-24.46Q-67.7128125-24.87 -67.1528125-25.1Q-66.5828125-25.34 -65.9528125-25.34L-65.9528125-25.34L-52.2228125-25.34Q-51.0728125-25.34 -49.7928125-25.08Q-48.512812499999995-24.82 -47.262812499999995-24.25Q-46.002812500000005-23.67 -44.872812499999995-22.79Q-43.7328125-21.91 -42.8528125-20.66Q-41.9728125-19.41 -41.4628125-17.77Q-40.9428125-16.13 -40.9428125-14.06L-40.9428125-14.06ZM-8.040937499999998-16.8L-8.040937499999998-8.55Q-8.040937499999998-6.98 -8.4409375-5.73Q-8.830937500000001-4.48 -9.490937500000001-3.53Q-10.150937500000001-2.58 -11.0109375-1.91Q-11.880937500000002-1.24 -12.830937500000001-0.82Q-13.7809375-0.4 -14.7509375-0.2Q-15.7309375 0 -16.5909375 0L-16.5909375 0L-27.580937499999997 0Q-28.8509375 0 -30.3509375-0.45Q-31.8509375-0.89 -33.1309375-1.91Q-34.4109375-2.93 -35.2609375-4.56Q-36.1209375-6.19 -36.1209375-8.55L-36.1209375-8.55L-36.1209375-16.8Q-36.1209375-19.15 -35.2609375-20.78Q-34.4109375-22.41 -33.1309375-23.43Q-31.8509375-24.45 -30.3509375-24.89Q-28.8509375-25.34 -27.580937499999997-25.34L-27.580937499999997-25.34L-16.5909375-25.34Q-14.2509375-25.34 -12.610937499999999-24.49Q-10.970937500000002-23.65 -9.9609375-22.37Q-8.950937499999998-21.09 -8.5009375-19.59Q-8.040937499999998-18.09 -8.040937499999998-16.8L-8.040937499999998-16.8ZM-14.130937500000002-8.55L-14.130937500000002-16.76Q-14.130937500000002-18.02 -14.7609375-18.63Q-15.400937500000001-19.24 -16.5909375-19.24L-16.5909375-19.24L-27.5409375-19.24Q-28.7609375-19.24 -29.3909375-18.62Q-30.020937500000002-18 -30.020937500000002-16.8L-30.020937500000002-16.8L-30.020937500000002-8.55Q-30.020937500000002-7.36 -29.3909375-6.73Q-28.7609375-6.09 -27.5409375-6.09L-27.5409375-6.09L-16.5909375-6.09Q-15.3509375-6.09 -14.740937500000001-6.73Q-14.130937500000002-7.36 -14.130937500000002-8.55L-14.130937500000002-8.55ZM 36.520624999999995-25.34L 42.980625-25.34Q 41.950625-22.13  40.570625-19.01Q 39.190625-15.89  37.390625-13.07Q 35.600625-10.24  33.390625-7.84Q 31.170625-5.44  28.490625-3.69Q 25.800625-1.95  22.650624999999998-0.95Q 19.500625 0.05  15.820625 0.05L 15.820625 0.05Q 15.190625 0.05  14.620625-0.19Q 14.060625-0.42  13.640625-0.83Q 13.220625-1.24  12.980625-1.79Q 12.750625-2.34  12.750625-2.98L 12.750625-2.98L 12.750625-25.34L 18.840625-25.34L 18.840625-6.28Q 21.070625-6.28  23.120625-7.24Q 25.170625-8.2  27.000625-9.79Q 28.830625-11.37  30.390625-13.38Q 31.940625-15.4  33.160624999999996-17.52Q 34.380624999999995-19.64  35.240625-21.68Q 36.090625-23.72  36.520624999999995-25.34L 36.520624999999995-25.34ZM 69.7046875-6.09L 69.7046875 0L 53.1846875 0Q 51.9146875 0  50.4146875-0.45Q 48.9146875-0.89  47.6346875-1.91Q 46.3546875-2.93  45.5046875-4.56Q 44.6446875-6.19  44.6446875-8.55L 44.6446875-8.55L 44.6446875-16.8Q 44.6446875-17.67  44.8446875-18.63Q 45.0446875-19.59  45.4646875-20.54Q 45.8946875-21.49  46.5546875-22.36Q 47.2246875-23.23  48.1746875-23.88Q 49.1246875-24.54  50.3646875-24.94Q 51.6046875-25.34  53.1846875-25.34L 53.1846875-25.34L 69.7046875-25.34L 69.7046875-19.24L 53.1846875-19.24Q 51.9846875-19.24  51.3646875-18.63Q 50.7446875-18.02  50.7446875-16.76L 50.7446875-16.76L 50.7446875-8.55Q 50.7446875-7.36  51.3746875-6.73Q 52.0046875-6.09  53.2246875-6.09L 53.2246875-6.09L 69.7046875-6.09Z"></path><g transform="matrix(4.185007572174072, 0, 0, 4.185007572174072, 122.07975769042969, 22.658090591430664)" fill="#000000" data-uid="o_eij0d4lle_8"><path d="M48.487,15.975C44.411,11.542,38.619,9,32.596,9c-0.137,0-0.272,0.008-0.408,0.017L31,9.057V13h2v-1.996   c1.605,0.034,3.182,0.288,4.71,0.703l-1.266,3.798C35.194,15.185,33.905,15,32.595,15c-1.789,0-3.502,0.318-5.104,0.875   L19.358,2.32C18.869,1.506,17.976,1,17.026,1h-0.305C15.221,1,14,2.221,14,3.721c0,0.294,0.047,0.584,0.14,0.86l0.09,0.269   l0.133,0.399l0.001,0.001l5.469,16.407c-1.748,2.488-2.793,5.503-2.83,8.759L1,39.415V44c0,4.411,3.589,8,8,8l13.123-2.922   C24.716,50.991,27.775,52,31,52c8.271,0,15-6.729,15-15h-2c0,7.168-5.832,13-13,13c-2.932,0-5.707-0.964-8.024-2.786l-0.374-0.294   L8.893,49.999C5.634,49.941,3,47.272,3,44v-3.415l16-9v-0.989C19,23.099,25.099,17,32.595,17c3.792,0,7.439,1.601,10.005,4.391   L61,41.39V61H36.834l-1.305-7.179l-1.968,0.357L35.166,63H63V31.749L48.487,15.975z M18.717,11.987C18.81,11.99,18.908,12,19,12   c1.187,0,2.363-0.188,3.509-0.542l1.576,2.627c-1.415,0.515-2.88,0.806-4.377,0.877L18.717,11.987z M19.804,6.95l1.639,2.732   C20.64,9.888,19.823,10,19,10c-0.303,0-0.628-0.025-0.966-0.061l-1.09-3.269C17.608,6.875,18.298,7,19,7   C19.266,7,19.535,6.982,19.804,6.95z M16.721,3h0.305c0.252,0,0.489,0.134,0.618,0.35l0.981,1.635   c-0.926-0.065-1.8-0.386-2.554-0.934L16.054,4l-0.018-0.053C16.013,3.876,16,3.797,16,3.721C16,3.323,16.323,3,16.721,3z    M21.334,19.839l-0.97-2.911c1.632-0.131,3.225-0.505,4.764-1.105l0.502,0.837C24.018,17.47,22.568,18.547,21.334,19.839z    M55.674,26.74l2.957,3.214l-2.831,2.831l-2.957-3.214L55.674,26.74z M51.488,28.098l-3.041-3.306l2.528-3.16l3.344,3.635   L51.488,28.098z M39.611,12.329c1.56,0.6,3.05,1.376,4.413,2.354l-2.074,3.456c-1.109-0.832-2.322-1.506-3.604-2.016L39.611,12.329   z M43.487,19.465l2.114-3.524c0.492,0.437,0.965,0.899,1.413,1.387l2.59,2.815l-2.528,3.16l-3.005-3.266   C43.887,19.835,43.683,19.655,43.487,19.465z M57.156,34.258l2.831-2.831L61,32.528v5.908L57.156,34.258z" transform="matrix(1, 0, 0, 1, 0, 0)" fill="#000000" data-uid="o_eij0d4lle_9"></path><path d="M27,26h2c0.551,0,1,0.448,1,1h2c0-1.654-1.346-3-3-3v-2h-2v2c-1.654,0-3,1.346-3,3s1.346,3,3,3h2c0.551,0,1,0.448,1,1   s-0.449,1-1,1h-2c-0.551,0-1-0.448-1-1h-2c0,1.654,1.346,3,3,3v2h2v-2c1.654,0,3-1.346,3-3s-1.346-3-3-3h-2c-0.551,0-1-0.448-1-1   S26.449,26,27,26z" transform="matrix(1.3708781003952026, 0, 0, 1.3708781003952026, -7.887942790985107, -10.434638977050781)" fill="#00f802" data-uid="o_eij0d4lle_10"></path><path transform="matrix(1, 0, 0, 1, 0, 0)" fill="#000000" data-type="rect" data-x="8" data-y="1" data-width="2" data-height="2" d="M8,1H10,V3,H8,Z" data-uid="o_eij0d4lle_11"></path><path transform="matrix(1, 0, 0, 1, 0, 0)" fill="#000000" data-type="rect" data-x="8" data-y="5" data-width="2" data-height="2" d="M8,5H10,V7,H8,Z" data-uid="o_eij0d4lle_12"></path><path transform="matrix(1, 0, 0, 1, 0, 0)" fill="#000000" data-type="rect" data-x="6" data-y="3" data-width="2" data-height="2" d="M6,3H8,V5,H6,Z" data-uid="o_eij0d4lle_13"></path><path transform="matrix(1, 0, 0, 1, 0, 0)" fill="#000000" data-type="rect" data-x="10" data-y="3" data-width="2" data-height="2" d="M10,3H12,V5,H10,Z" data-uid="o_eij0d4lle_14"></path><path transform="matrix(1, 0, 0, 1, 0, 0)" fill="#000000" data-type="rect" data-x="12" data-y="14" data-width="2" data-height="2" d="M12,14H14,V16,H12,Z" data-uid="o_eij0d4lle_15"></path><path transform="matrix(1, 0, 0, 1, 0, 0)" fill="#000000" data-type="rect" data-x="12" data-y="18" data-width="2" data-height="2" d="M12,18H14,V20,H12,Z" data-uid="o_eij0d4lle_16"></path><path transform="matrix(1, 0, 0, 1, 0, 0)" fill="#000000" data-type="rect" data-x="10" data-y="16" data-width="2" data-height="2" d="M10,16H12,V18,H10,Z" data-uid="o_eij0d4lle_17"></path><path transform="matrix(1, 0, 0, 1, 0, 0)" fill="#000000" data-type="rect" data-x="14" data-y="16" data-width="2" data-height="2" d="M14,16H16,V18,H14,Z" data-uid="o_eij0d4lle_18"></path><path transform="matrix(1, 0, 0, 1, 0, 0)" fill="#000000" data-type="rect" data-x="27" data-y="3" data-width="2" data-height="2" d="M27,3H29,V5,H27,Z" data-uid="o_eij0d4lle_19"></path><path transform="matrix(1, 0, 0, 1, 0, 0)" fill="#000000" data-type="rect" data-x="27" data-y="7" data-width="2" data-height="2" d="M27,7H29,V9,H27,Z" data-uid="o_eij0d4lle_20"></path><path transform="matrix(1, 0, 0, 1, 0, 0)" fill="#000000" data-type="rect" data-x="25" data-y="5" data-width="2" data-height="2" d="M25,5H27,V7,H25,Z" data-uid="o_eij0d4lle_21"></path><path transform="matrix(1, 0, 0, 1, 0, 0)" fill="#000000" data-type="rect" data-x="29" data-y="5" data-width="2" data-height="2" d="M29,5H31,V7,H29,Z" data-uid="o_eij0d4lle_22"></path></g></svg>
